<mxfile host="app.diagrams.net" agent="Mozilla/5.0 (Windows NT 10.0; Win64; x64) AppleWebKit/537.36 (KHTML, like Gecko) Chrome/130.0.0.0 Safari/537.36" version="28.2.0">
  <diagram name="Page-1" id="BItknshnpAHT5j3hp3z4">
    <mxGraphModel dx="512" dy="658" grid="1" gridSize="10" guides="1" tooltips="1" connect="1" arrows="1" fold="1" page="1" pageScale="1" pageWidth="850" pageHeight="1100" math="0" shadow="0">
      <root>
        <mxCell id="0" />
        <mxCell id="1" parent="0" />
        <mxCell id="GmzdCNtn99F8EHcmDrrp-1" value="Employee" style="rounded=0;whiteSpace=wrap;html=1;" parent="1" vertex="1">
          <mxGeometry x="370" y="232" width="120" height="60" as="geometry" />
        </mxCell>
        <mxCell id="GmzdCNtn99F8EHcmDrrp-2" value="Id" style="ellipse;whiteSpace=wrap;html=1;" parent="1" vertex="1">
          <mxGeometry x="230" y="182" width="100" height="30" as="geometry" />
        </mxCell>
        <mxCell id="GmzdCNtn99F8EHcmDrrp-3" value="Name" style="ellipse;whiteSpace=wrap;html=1;" parent="1" vertex="1">
          <mxGeometry x="330" y="162" width="100" height="30" as="geometry" />
        </mxCell>
        <mxCell id="GmzdCNtn99F8EHcmDrrp-4" value="Email" style="ellipse;whiteSpace=wrap;html=1;" parent="1" vertex="1">
          <mxGeometry x="445" y="162" width="100" height="30" as="geometry" />
        </mxCell>
        <mxCell id="GmzdCNtn99F8EHcmDrrp-5" value="Password" style="ellipse;whiteSpace=wrap;html=1;" parent="1" vertex="1">
          <mxGeometry x="520" y="202" width="100" height="30" as="geometry" />
        </mxCell>
        <mxCell id="GmzdCNtn99F8EHcmDrrp-6" value="" style="endArrow=classic;html=1;rounded=0;entryX=0.577;entryY=0.998;entryDx=0;entryDy=0;entryPerimeter=0;" parent="1" target="GmzdCNtn99F8EHcmDrrp-2" edge="1">
          <mxGeometry width="50" height="50" relative="1" as="geometry">
            <mxPoint x="430" y="232" as="sourcePoint" />
            <mxPoint x="460" y="242" as="targetPoint" />
          </mxGeometry>
        </mxCell>
        <mxCell id="GmzdCNtn99F8EHcmDrrp-7" value="" style="endArrow=classic;html=1;rounded=0;entryX=0.22;entryY=0.917;entryDx=0;entryDy=0;entryPerimeter=0;exitX=0.473;exitY=0.016;exitDx=0;exitDy=0;exitPerimeter=0;" parent="1" source="GmzdCNtn99F8EHcmDrrp-1" target="GmzdCNtn99F8EHcmDrrp-4" edge="1">
          <mxGeometry width="50" height="50" relative="1" as="geometry">
            <mxPoint x="471" y="242" as="sourcePoint" />
            <mxPoint x="389" y="192" as="targetPoint" />
          </mxGeometry>
        </mxCell>
        <mxCell id="GmzdCNtn99F8EHcmDrrp-8" value="" style="endArrow=classic;html=1;rounded=0;entryX=0.5;entryY=1;entryDx=0;entryDy=0;exitX=0.47;exitY=-0.008;exitDx=0;exitDy=0;exitPerimeter=0;" parent="1" source="GmzdCNtn99F8EHcmDrrp-1" target="GmzdCNtn99F8EHcmDrrp-3" edge="1">
          <mxGeometry width="50" height="50" relative="1" as="geometry">
            <mxPoint x="437" y="243" as="sourcePoint" />
            <mxPoint x="477" y="200" as="targetPoint" />
          </mxGeometry>
        </mxCell>
        <mxCell id="GmzdCNtn99F8EHcmDrrp-9" value="" style="endArrow=classic;html=1;rounded=0;entryX=0;entryY=0.5;entryDx=0;entryDy=0;exitX=0.5;exitY=0;exitDx=0;exitDy=0;" parent="1" source="GmzdCNtn99F8EHcmDrrp-1" target="GmzdCNtn99F8EHcmDrrp-5" edge="1">
          <mxGeometry width="50" height="50" relative="1" as="geometry">
            <mxPoint x="436" y="242" as="sourcePoint" />
            <mxPoint x="390" y="202" as="targetPoint" />
          </mxGeometry>
        </mxCell>
        <mxCell id="GmzdCNtn99F8EHcmDrrp-10" value="Projects" style="rounded=0;whiteSpace=wrap;html=1;" parent="1" vertex="1">
          <mxGeometry x="690" y="232" width="120" height="60" as="geometry" />
        </mxCell>
        <mxCell id="GmzdCNtn99F8EHcmDrrp-11" value="Id" style="ellipse;whiteSpace=wrap;html=1;" parent="1" vertex="1">
          <mxGeometry x="650" y="162" width="80" height="40" as="geometry" />
        </mxCell>
        <mxCell id="GmzdCNtn99F8EHcmDrrp-12" value="Name" style="ellipse;whiteSpace=wrap;html=1;" parent="1" vertex="1">
          <mxGeometry x="750" y="162" width="80" height="40" as="geometry" />
        </mxCell>
        <mxCell id="GmzdCNtn99F8EHcmDrrp-13" value="" style="endArrow=classic;html=1;rounded=0;exitX=0.5;exitY=0;exitDx=0;exitDy=0;entryX=0.589;entryY=1.038;entryDx=0;entryDy=0;entryPerimeter=0;" parent="1" source="GmzdCNtn99F8EHcmDrrp-10" target="GmzdCNtn99F8EHcmDrrp-11" edge="1">
          <mxGeometry width="50" height="50" relative="1" as="geometry">
            <mxPoint x="720" y="292" as="sourcePoint" />
            <mxPoint x="770" y="242" as="targetPoint" />
          </mxGeometry>
        </mxCell>
        <mxCell id="GmzdCNtn99F8EHcmDrrp-14" value="" style="endArrow=classic;html=1;rounded=0;exitX=0.5;exitY=0;exitDx=0;exitDy=0;entryX=0.354;entryY=1.015;entryDx=0;entryDy=0;entryPerimeter=0;" parent="1" source="GmzdCNtn99F8EHcmDrrp-10" target="GmzdCNtn99F8EHcmDrrp-12" edge="1">
          <mxGeometry width="50" height="50" relative="1" as="geometry">
            <mxPoint x="760" y="242" as="sourcePoint" />
            <mxPoint x="707" y="214" as="targetPoint" />
          </mxGeometry>
        </mxCell>
        <mxCell id="GmzdCNtn99F8EHcmDrrp-15" value="" style="endArrow=none;html=1;rounded=0;exitX=1;exitY=0.5;exitDx=0;exitDy=0;entryX=0;entryY=0.5;entryDx=0;entryDy=0;" parent="1" source="GmzdCNtn99F8EHcmDrrp-1" target="GmzdCNtn99F8EHcmDrrp-10" edge="1">
          <mxGeometry width="50" height="50" relative="1" as="geometry">
            <mxPoint x="610" y="292" as="sourcePoint" />
            <mxPoint x="660" y="242" as="targetPoint" />
          </mxGeometry>
        </mxCell>
        <mxCell id="GmzdCNtn99F8EHcmDrrp-16" value="Many to Many" style="text;html=1;align=center;verticalAlign=middle;resizable=0;points=[];autosize=1;strokeColor=none;fillColor=none;" parent="1" vertex="1">
          <mxGeometry x="530" y="240" width="100" height="30" as="geometry" />
        </mxCell>
        <mxCell id="GmzdCNtn99F8EHcmDrrp-17" value="Address" style="rounded=0;whiteSpace=wrap;html=1;" parent="1" vertex="1">
          <mxGeometry x="290" y="372" width="120" height="60" as="geometry" />
        </mxCell>
        <mxCell id="GmzdCNtn99F8EHcmDrrp-18" value="Id" style="ellipse;whiteSpace=wrap;html=1;" parent="1" vertex="1">
          <mxGeometry x="150" y="382" width="80" height="40" as="geometry" />
        </mxCell>
        <mxCell id="GmzdCNtn99F8EHcmDrrp-19" value="city" style="ellipse;whiteSpace=wrap;html=1;" parent="1" vertex="1">
          <mxGeometry x="170" y="447" width="80" height="40" as="geometry" />
        </mxCell>
        <mxCell id="GmzdCNtn99F8EHcmDrrp-20" value="" style="endArrow=none;html=1;rounded=0;exitX=0.5;exitY=0;exitDx=0;exitDy=0;entryX=0.5;entryY=1;entryDx=0;entryDy=0;" parent="1" source="GmzdCNtn99F8EHcmDrrp-17" target="GmzdCNtn99F8EHcmDrrp-1" edge="1">
          <mxGeometry width="50" height="50" relative="1" as="geometry">
            <mxPoint x="420" y="352" as="sourcePoint" />
            <mxPoint x="470" y="302" as="targetPoint" />
          </mxGeometry>
        </mxCell>
        <mxCell id="GmzdCNtn99F8EHcmDrrp-21" value="One to One" style="text;html=1;align=center;verticalAlign=middle;resizable=0;points=[];autosize=1;strokeColor=none;fillColor=none;" parent="1" vertex="1">
          <mxGeometry x="315" y="310" width="90" height="30" as="geometry" />
        </mxCell>
        <mxCell id="GmzdCNtn99F8EHcmDrrp-22" value="Department" style="rounded=0;whiteSpace=wrap;html=1;" parent="1" vertex="1">
          <mxGeometry x="550" y="362" width="120" height="60" as="geometry" />
        </mxCell>
        <mxCell id="GmzdCNtn99F8EHcmDrrp-23" value="Id" style="ellipse;whiteSpace=wrap;html=1;" parent="1" vertex="1">
          <mxGeometry x="625" y="442" width="80" height="50" as="geometry" />
        </mxCell>
        <mxCell id="GmzdCNtn99F8EHcmDrrp-25" value="name" style="ellipse;whiteSpace=wrap;html=1;" parent="1" vertex="1">
          <mxGeometry x="705" y="382" width="90" height="50" as="geometry" />
        </mxCell>
        <mxCell id="GmzdCNtn99F8EHcmDrrp-27" value="" style="endArrow=none;html=1;rounded=0;entryX=0.358;entryY=0.012;entryDx=0;entryDy=0;entryPerimeter=0;" parent="1" target="GmzdCNtn99F8EHcmDrrp-22" edge="1">
          <mxGeometry width="50" height="50" relative="1" as="geometry">
            <mxPoint x="490" y="292" as="sourcePoint" />
            <mxPoint x="640" y="302" as="targetPoint" />
          </mxGeometry>
        </mxCell>
        <mxCell id="GmzdCNtn99F8EHcmDrrp-28" value="One to Many" style="text;html=1;align=center;verticalAlign=middle;resizable=0;points=[];autosize=1;strokeColor=none;fillColor=none;" parent="1" vertex="1">
          <mxGeometry x="540" y="310" width="90" height="30" as="geometry" />
        </mxCell>
        <mxCell id="GmzdCNtn99F8EHcmDrrp-29" value="state" style="ellipse;whiteSpace=wrap;html=1;" parent="1" vertex="1">
          <mxGeometry x="270" y="460" width="100" height="50" as="geometry" />
        </mxCell>
        <mxCell id="GmzdCNtn99F8EHcmDrrp-30" value="address_id" style="ellipse;whiteSpace=wrap;html=1;" parent="1" vertex="1">
          <mxGeometry x="200" y="237" width="100" height="50" as="geometry" />
        </mxCell>
        <mxCell id="GmzdCNtn99F8EHcmDrrp-35" value="id&amp;nbsp; title&amp;nbsp; &amp;nbsp; user_id&lt;br&gt;1&amp;nbsp; java&amp;nbsp; &amp;nbsp; &amp;nbsp; &amp;nbsp; 1&lt;br&gt;2&amp;nbsp; python&amp;nbsp; &amp;nbsp; &amp;nbsp; &amp;nbsp;1&lt;br&gt;3&amp;nbsp; &amp;nbsp;c#&amp;nbsp; &amp;nbsp; &amp;nbsp; &amp;nbsp; &amp;nbsp; &amp;nbsp;2&lt;br&gt;4&amp;nbsp; &amp;nbsp;python&amp;nbsp; &amp;nbsp; &amp;nbsp;2&amp;nbsp; &amp;nbsp; &amp;nbsp;&amp;nbsp;" style="whiteSpace=wrap;html=1;aspect=fixed;" parent="1" vertex="1">
          <mxGeometry x="380" y="842" width="200" height="200" as="geometry" />
        </mxCell>
        <mxCell id="GmzdCNtn99F8EHcmDrrp-36" value="Notes" style="text;html=1;align=center;verticalAlign=middle;resizable=0;points=[];autosize=1;strokeColor=none;fillColor=none;" parent="1" vertex="1">
          <mxGeometry x="415" y="820" width="50" height="30" as="geometry" />
        </mxCell>
        <mxCell id="GmzdCNtn99F8EHcmDrrp-37" value="country" style="ellipse;whiteSpace=wrap;html=1;" parent="1" vertex="1">
          <mxGeometry x="380" y="460" width="100" height="50" as="geometry" />
        </mxCell>
        <mxCell id="GmzdCNtn99F8EHcmDrrp-38" value="" style="endArrow=classic;html=1;rounded=0;entryX=1;entryY=0.5;entryDx=0;entryDy=0;exitX=0;exitY=0.5;exitDx=0;exitDy=0;" parent="1" source="GmzdCNtn99F8EHcmDrrp-17" target="GmzdCNtn99F8EHcmDrrp-18" edge="1">
          <mxGeometry width="50" height="50" relative="1" as="geometry">
            <mxPoint x="450" y="243" as="sourcePoint" />
            <mxPoint x="490" y="200" as="targetPoint" />
          </mxGeometry>
        </mxCell>
        <mxCell id="GmzdCNtn99F8EHcmDrrp-39" value="" style="endArrow=classic;html=1;rounded=0;entryX=1;entryY=0;entryDx=0;entryDy=0;exitX=0;exitY=1;exitDx=0;exitDy=0;" parent="1" source="GmzdCNtn99F8EHcmDrrp-17" target="GmzdCNtn99F8EHcmDrrp-19" edge="1">
          <mxGeometry width="50" height="50" relative="1" as="geometry">
            <mxPoint x="380" y="410" as="sourcePoint" />
            <mxPoint x="320" y="410" as="targetPoint" />
          </mxGeometry>
        </mxCell>
        <mxCell id="GmzdCNtn99F8EHcmDrrp-40" value="" style="endArrow=classic;html=1;rounded=0;entryX=0.5;entryY=0;entryDx=0;entryDy=0;exitX=0.25;exitY=1;exitDx=0;exitDy=0;" parent="1" source="GmzdCNtn99F8EHcmDrrp-17" target="GmzdCNtn99F8EHcmDrrp-29" edge="1">
          <mxGeometry width="50" height="50" relative="1" as="geometry">
            <mxPoint x="372" y="430" as="sourcePoint" />
            <mxPoint x="320" y="451" as="targetPoint" />
          </mxGeometry>
        </mxCell>
        <mxCell id="GmzdCNtn99F8EHcmDrrp-41" value="" style="endArrow=classic;html=1;rounded=0;entryX=0;entryY=0;entryDx=0;entryDy=0;exitX=0.5;exitY=1;exitDx=0;exitDy=0;" parent="1" source="GmzdCNtn99F8EHcmDrrp-17" target="GmzdCNtn99F8EHcmDrrp-37" edge="1">
          <mxGeometry width="50" height="50" relative="1" as="geometry">
            <mxPoint x="370" y="440" as="sourcePoint" />
            <mxPoint x="370" y="468" as="targetPoint" />
          </mxGeometry>
        </mxCell>
        <mxCell id="GmzdCNtn99F8EHcmDrrp-42" value="" style="endArrow=classic;html=1;rounded=0;entryX=0.5;entryY=0;entryDx=0;entryDy=0;exitX=0.75;exitY=1;exitDx=0;exitDy=0;" parent="1" source="GmzdCNtn99F8EHcmDrrp-22" target="GmzdCNtn99F8EHcmDrrp-23" edge="1">
          <mxGeometry width="50" height="50" relative="1" as="geometry">
            <mxPoint x="640" y="420" as="sourcePoint" />
            <mxPoint x="640" y="448" as="targetPoint" />
          </mxGeometry>
        </mxCell>
        <mxCell id="GmzdCNtn99F8EHcmDrrp-43" value="" style="endArrow=classic;html=1;rounded=0;entryX=0;entryY=0.5;entryDx=0;entryDy=0;exitX=1;exitY=0.75;exitDx=0;exitDy=0;" parent="1" source="GmzdCNtn99F8EHcmDrrp-22" target="GmzdCNtn99F8EHcmDrrp-25" edge="1">
          <mxGeometry width="50" height="50" relative="1" as="geometry">
            <mxPoint x="690" y="420" as="sourcePoint" />
            <mxPoint x="715" y="440" as="targetPoint" />
          </mxGeometry>
        </mxCell>
      </root>
    </mxGraphModel>
  </diagram>
</mxfile>
